<svg xmlns="http://www.w3.org/2000/svg" width="650" height="400" viewBox="0 0 650 400"><rect width="100%" height="100%" fill="#DDDDDD"/><path fill="#999999" d="M219.15 217.7h46l-17.6-48.1q-1.3-3.2-2.7-7.6-1.4-4.4-2.8-9.5-1.3 5.1-2.7 9.55-1.4 4.45-2.7 7.75l-17.5 47.9Zm36.7-90 56.8 144.6h-20.8q-3.5 0-5.7-1.75t-3.3-4.35l-10.8-29.5h-59.9l-10.8 29.5q-.8 2.3-3.1 4.2-2.3 1.9-5.7 1.9h-21l56.9-144.6h27.4Zm98.7 72.7h20.1q7.4 0 12.9-1.85t9.15-5.3q3.65-3.45 5.45-8.4 1.8-4.95 1.8-11.05 0-5.8-1.8-10.5t-5.4-8q-3.6-3.3-9.1-5.05t-13-1.75h-20.1v51.9Zm-26.9-72.7h47q14.5 0 25.1 3.4 10.6 3.4 17.5 9.5t10.25 14.6q3.35 8.5 3.35 18.6 0 10.5-3.5 19.25t-10.5 15.05q-7 6.3-17.55 9.8-10.55 3.5-24.65 3.5h-20.1v50.9h-26.9V127.7Zm150.8 0v144.6h-27V127.7h27Z"/></svg>
