<?xml version="1.0" encoding="UTF-8"?>
<svg id="Layer_2" data-name="Layer 2" xmlns="http://www.w3.org/2000/svg" viewBox="0 0 300 300">
  <defs>
    <style>
      .cls-1 {
        fill: #fff;
      }

      .cls-2 {
        fill: #1e1e2e;
      }
    </style>
  </defs>
  <g id="Layer_1-2" data-name="Layer 1">
    <g>
      <circle class="cls-2" cx="150" cy="150" r="150"/>
      <g>
        <path class="cls-1" d="M94.52,92.87c6.72,0,13.26,1.1,19.59,3.3,6.34,2.2,12,5.33,16.98,9.41,4.98,4.07,8.95,9.05,11.93,14.94,2.97,5.89,4.46,12.45,4.46,19.69l-1.55,9.31v12.8c0,.91-.39,2.13-1.16,3.69-.78,1.55-1.16,2.85-1.16,3.88-.78,1.68-1.49,3.36-2.13,5.04-.65,1.42-1.36,2.94-2.13,4.56-.78,1.62-1.68,3.14-2.71,4.56-.52,1.04-1.39,2.2-2.62,3.49-1.23,1.29-2.65,2.52-4.27,3.69s-3.27,2.13-4.95,2.91c-1.68,.78-3.3,1.16-4.85,1.16h-3.69c-1.42,0-2.85,.19-4.27,.58-1.43,.39-2.81,.81-4.17,1.26-1.36,.45-2.55,.87-3.59,1.26-1.04,.39-1.75,.58-2.13,.58h-5.24c-2.2,0-4.11,.29-5.72,.87-1.62,.58-3.01,.87-4.17,.87h-26.97c-.78,.39-1.49,.78-2.13,1.16-1.29,.65-2.52,.97-3.69,.97l-5.43-2.13h-5.43l-5.24,2.13c-.91,0-2.1-.42-3.59-1.26-1.49-.84-2.69-1.71-3.59-2.62-.52,0-1.29-.03-2.33-.1-1.04-.06-2.04-.26-3.01-.58-.97-.32-1.84-.84-2.62-1.55-.78-.71-1.16-1.71-1.16-3.01,0-1.03,.45-2,1.36-2.91,.9-.9,1.94-1.68,3.1-2.33,1.42-.78,2.97-1.55,4.66-2.33h5.43l9.12-2.13c1.03,.39,2,.78,2.91,1.16,1.68,.65,3.1,.97,4.27,.97,1.29,0,2.29-.42,3.01-1.26,.71-.84,1.23-1.84,1.55-3.01,.32-1.16,.51-2.36,.58-3.59,.06-1.23,.1-2.23,.1-3.01v-11.83c0-.52-.26-1.29-.78-2.33-.26-.52-.52-.97-.78-1.36v-12.03c0-1.03,.26-2.33,.78-3.88,.52-1.55,.78-3.3,.78-5.24v-16.68c0-3.49-.58-6.43-1.75-8.83-1.16-2.39-3.62-3.59-7.37-3.59-.78,0-1.42,.1-1.94,.29-.52,.19-1,.39-1.46,.58-.46,.19-.94,.36-1.46,.48-.52,.13-1.23,.19-2.13,.19l-5.43-1.55h-3.69c-.91,0-2.04-.42-3.4-1.26-1.36-.84-2.04-1.65-2.04-2.43,0-1.94,1.07-3.62,3.2-5.04,2.13-1.42,4.56-2.62,7.27-3.59,2.72-.97,5.37-1.68,7.96-2.13,2.58-.45,4.33-.68,5.24-.68h3.3c1.03,0,2,.36,2.91,1.07,.9,.71,1.87,1.07,2.91,1.07,1.03-.26,2-.58,2.91-.97,.78-.26,1.58-.52,2.42-.78,.84-.26,1.58-.39,2.23-.39h10.86c2.59-.26,4.98-.52,7.18-.78,1.81-.26,3.59-.45,5.34-.58,1.75-.13,2.94-.19,3.59-.19Zm-9.12,18.82c-.39,0-1.16,.26-2.33,.78-1.16,.52-2.36,1.23-3.59,2.13-1.23,.91-2.33,1.88-3.3,2.91-.97,1.04-1.46,2.01-1.46,2.91,.26,.26,.52,.58,.78,.97,.52,.78,.78,1.68,.78,2.72v49.08c.51,1.04,.84,2.13,.97,3.3,.13,1.16,.29,2.26,.49,3.3,.19,1.04,.55,1.94,1.07,2.72,.52,.78,1.48,1.29,2.91,1.55h2.13c.39,0,1.07-.06,2.04-.19,.97-.13,2-.26,3.11-.39,1.1-.13,2.16-.26,3.2-.39,1.04-.13,1.81-.19,2.33-.19,5.56-.13,10.25-1.39,14.07-3.78,3.81-2.39,6.95-5.4,9.41-9.02,2.46-3.62,4.27-7.5,5.43-11.64,1.16-4.14,1.81-8.02,1.94-11.64,.13-2.84-.52-6.27-1.94-10.28-1.42-4.01-3.17-7.73-5.24-11.16-2.07-3.43-4.2-6.08-6.4-7.95-2.2-1.87-3.95-2.16-5.24-.87-.78-.52-1.49-1.03-2.13-1.55-.65-.39-1.26-.78-1.84-1.16-.58-.39-1.07-.58-1.45-.58h-1.75l-13.97-1.55Z"/>
        <path class="cls-1" d="M194.62,90.73c1.68,0,3.01,.13,3.98,.39,.97,.26,1.46,1.16,1.46,2.72,0,2.46-.78,4.27-2.33,5.43-1.55,1.16-3.3,2.07-5.24,2.72-1.94,.65-3.69,1.29-5.24,1.94-1.55,.65-2.33,1.62-2.33,2.91,0,1.04,.19,2.2,.58,3.49,.39,1.29,.81,2.52,1.26,3.69,.45,1.16,.97,2.13,1.55,2.91s1.07,1.16,1.46,1.16c.9,.91,1.68,1.88,2.33,2.91,.65,.91,1.23,1.84,1.75,2.81,.52,.97,.78,1.97,.78,3.01,0,.39,.29,1.39,.87,3.01,.58,1.62,1.32,3.56,2.23,5.82,.9,2.26,1.91,4.69,3.01,7.27,1.1,2.59,2.26,4.95,3.49,7.08,1.23,2.13,2.43,3.91,3.59,5.33,1.16,1.42,2.2,2.13,3.1,2.13,.78,0,1.58-.65,2.42-1.94,.84-1.29,1.58-2.72,2.23-4.27,.78-1.81,1.55-3.88,2.33-6.21,.9-1.29,2.29-3.65,4.17-7.08,1.87-3.43,3.72-7.15,5.53-11.16,1.81-4.01,3.43-7.86,4.85-11.54,1.42-3.69,2.13-6.5,2.13-8.44,0-1.42-.42-2.36-1.26-2.81-.84-.45-1.65-.94-2.42-1.46-.91-.26-1.78-.71-2.62-1.36-.84-.65-1.26-1.62-1.26-2.91s.39-2.33,1.16-3.1,1.71-1.32,2.81-1.65c1.1-.32,2.13-.52,3.11-.58,.97-.06,1.65-.1,2.04-.1h9.31c.39,0,.78,.07,1.16,.19,.39,.13,.71,.26,.97,.39,.39,.13,.71,.26,.97,.39,2.84,0,4.95-.06,6.31-.19,1.36-.13,2.46-.29,3.3-.49,.84-.19,1.68-.39,2.52-.58,.84-.19,2.23-.29,4.17-.29l3.69,.58,3.88-.58c1.55,0,2.91,.45,4.07,1.36,1.16,.91,1.75,2.46,1.75,4.66,0,1.42-.26,2.56-.78,3.4-.52,.84-1.16,1.46-1.94,1.84-.78,.39-1.68,.71-2.72,.97-1.04,.26-2.07,.52-3.1,.78-2.98,.52-6.01,1.13-9.12,1.84-3.1,.71-5.3,2.42-6.6,5.14l-.97,4.27c-.26,.39-.75,1.1-1.46,2.13-.71,1.04-1.46,2.2-2.23,3.49-.78,1.29-1.52,2.69-2.23,4.17-.71,1.49-1.26,2.88-1.65,4.17-.39,.78-.84,1.49-1.36,2.13-.39,.65-.81,1.26-1.26,1.84-.46,.58-.87,1.07-1.26,1.46-.78,1.94-1.72,4.11-2.81,6.5-1.1,2.39-2.49,4.56-4.17,6.5-3.23,7.63-6.01,14.68-8.34,21.15-1.04,2.72-2.07,5.5-3.11,8.34-1.04,2.85-1.94,5.47-2.71,7.86-.78,2.4-1.39,4.53-1.84,6.4-.46,1.88-.68,3.27-.68,4.17v5.43c0,1.94-.23,3.59-.68,4.95-.46,1.36-2.04,2.04-4.75,2.04-1.04,0-2.1-.07-3.2-.19-1.1-.13-2.17-.58-3.2-1.36-1.68-.78-2.62-1.68-2.81-2.72-.19-1.04-.68-1.94-1.46-2.72-1.16-1.55-1.75-2.97-1.75-4.27-.26-1.42-.52-2.68-.78-3.78-.26-1.1-.71-2.16-1.36-3.2,0-.9-.36-2.1-1.07-3.59-.71-1.49-1.07-2.62-1.07-3.4-1.42-2.46-2.55-4.82-3.39-7.08-.84-2.26-1.71-4.56-2.62-6.89-.91-2.33-1.91-4.75-3.01-7.28-1.1-2.52-2.62-5.2-4.56-8.05-.26-1.29-.58-2.59-.97-3.88-.26-1.03-.52-2.1-.78-3.2-.26-1.1-.52-1.97-.78-2.62l-1.75-4.85c-.26-.78-.87-1.87-1.84-3.3-.97-1.42-1.97-2.84-3.01-4.27-1.29-1.55-2.72-3.3-4.27-5.24-.65-4.91-1.78-9.51-3.4-13.77s-3.91-7.24-6.89-8.92c-6.47-3.36-9.7-6.27-9.7-8.73,0-2.07,1.81-3.1,5.43-3.1h3.69c1.81,0,4.01-.32,6.6-.97,1.42-.39,2.84-.78,4.27-1.16h6.98l4.85,.97,3.49-.39c.9-.13,1.78-.26,2.62-.39,.84-.13,1.52-.19,2.04-.19h5.82Z"/>
      </g>
    </g>
  </g>
</svg>