<svg width="200" height="200" viewBox="0 0 200 200" fill="none" xmlns="http://www.w3.org/2000/svg">
<path d="M0 100C0 44.7715 44.7715 0 100 0C155.228 0 200 44.7715 200 100C200 155.228 155.228 200 100 200C44.7715 200 0 155.228 0 100Z" fill="#020817"/>
<path d="M84.256 155.36C79.3067 155.36 73.7173 154.933 67.488 154.08C64.0747 153.653 61.728 152.757 60.448 151.392C59.168 150.027 58.6133 147.808 58.784 144.736C59.3813 136.288 60.7893 125.877 63.008 113.504C65.2267 101.045 67.9147 89.056 71.072 77.536C71.6693 75.4027 72.864 73.9093 74.656 73.056C76.448 72.2027 78.7947 71.776 81.696 71.776C86.9013 71.776 89.504 73.2267 89.504 76.128C89.504 77.3227 89.248 78.688 88.736 80.224C86.5173 87.0507 84.2987 96.224 82.08 107.744C79.8613 119.179 78.2827 130.101 77.344 140.512C79.904 140.768 82.8053 140.896 86.048 140.896C100.981 140.896 112.117 136.373 119.456 127.328C126.88 118.283 130.592 106.208 130.592 91.104C130.592 80.9493 127.691 73.0987 121.888 67.552C116.085 62.0053 107.893 59.232 97.312 59.232C90.4853 59.232 83.7013 60.2987 76.96 62.432C70.304 64.5653 64.288 67.3813 58.912 70.88C57.8027 71.648 56.608 72.032 55.328 72.032C53.8773 72.032 52.7253 71.4347 51.872 70.24C51.0187 68.96 50.592 67.424 50.592 65.632C50.592 63.584 50.9333 61.92 51.616 60.64C52.2987 59.2747 53.4507 58.0373 55.072 56.928C60.96 52.9173 67.872 49.888 75.808 47.84C83.744 45.7067 91.3813 44.64 98.72 44.64C109.131 44.64 118.133 46.4747 125.728 50.144C133.323 53.728 139.168 59.0187 143.264 66.016C147.36 73.0133 149.408 81.4613 149.408 91.36C149.408 104.245 146.848 115.509 141.728 125.152C136.608 134.709 129.141 142.133 119.328 147.424C109.515 152.715 97.824 155.36 84.256 155.36Z" fill="#EDEEF0"/>
</svg>
